<svg width="63" height="64" viewBox="0 0 63 64" fill="none" xmlns="http://www.w3.org/2000/svg">
<rect y="0.666504" width="62.5" height="62.5" rx="31.25" fill="#EFD0D0"/>
<path d="M14.646 29.0429C14.646 29.0429 47.7859 29.0429 47.8353 29.0429C48.6357 28.7587 48.6001 28.149 47.8504 27.7445C47.0994 27.3376 31.2111 18.0276 31.2111 18.0276C31.2111 18.0276 15.4465 27.3376 14.646 27.7445C13.847 28.149 13.7962 28.7587 14.646 29.0429ZM31.2111 22.6252C32.5361 22.6252 33.6111 23.4968 33.6111 24.5724C33.6111 25.6479 32.5361 26.5206 31.2111 26.5206C29.8862 26.5206 28.8125 25.6479 28.8125 24.5724C28.8125 23.4968 29.8862 22.6252 31.2111 22.6252ZM15.4726 43.509H47.0074V42.4201H15.4726V43.509ZM22.3004 41.2843V31.3612H23.6432V30.1319H16.7879V31.2498H18.1307V41.2832H22.3004V41.2843ZM33.3256 41.2843V31.291H34.6683V30.201H27.8144V31.2487H29.1558V41.2821H33.3256V41.2843ZM14.1037 45.7359H48.3776V44.7172H14.1037V45.7359ZM44.2655 41.2843V31.291H45.6083V30.201H38.753V31.2487H40.0971V41.2821H44.2655V41.2843Z" fill="#611991"/>
</svg>
