<svg width="130" height="130" viewBox="0 0 130 130" fill="none" xmlns="http://www.w3.org/2000/svg">
<path d="M85.2568 23.737C79.7027 18.1844 72.749 14.239 65.1335 12.3194C57.518 10.3998 49.5249 10.5777 42.0024 12.8342C34.4799 15.0907 27.7086 19.3416 22.407 25.1358C17.1054 30.93 13.4713 38.0514 11.8903 45.7443C10.3093 53.4372 10.8405 61.4146 13.4273 68.83C16.0142 76.2454 20.5604 82.8221 26.5833 87.8624C32.6063 92.9026 39.8814 96.2183 47.6367 97.4575C55.392 98.6968 63.3381 97.8135 70.6318 94.9012L90.0235 114.298C93.2364 117.514 97.5952 119.322 102.141 119.324C106.687 119.326 111.047 117.522 114.263 114.309C117.479 111.096 119.287 106.737 119.289 102.192C119.291 97.6458 117.487 93.2853 114.274 90.0695L94.8823 70.6779C98.0393 62.7689 98.8102 54.1082 97.0996 45.7659C95.389 37.4236 91.2718 29.7653 85.2568 23.737ZM54.4793 87.1933C46.9191 87.1957 39.592 84.5768 33.7462 79.7826C27.9005 74.9885 23.8978 68.3157 22.4202 60.9013C20.9427 53.4869 22.0816 45.7895 25.6429 39.1207C29.2043 32.4519 34.9677 27.2241 41.9513 24.3282C48.9349 21.4323 56.7065 21.0474 63.9421 23.239C71.1776 25.4307 77.4295 30.0633 81.6324 36.3476C85.8353 42.6318 87.7293 50.179 86.9916 57.7031C86.2539 65.2273 82.9302 72.2629 77.5868 77.6112C74.5591 80.6556 70.9581 83.0699 66.9919 84.7145C63.0258 86.3592 58.773 87.2017 54.4793 87.1933ZM106.615 97.7179C107.747 98.9111 108.369 100.499 108.348 102.144C108.326 103.789 107.663 105.361 106.5 106.524C105.337 107.688 103.765 108.351 102.12 108.372C100.475 108.394 98.8867 107.772 97.6935 106.639L80.436 89.3816C82.1383 88.131 83.7493 86.7607 85.2568 85.2812C86.7364 83.7736 88.1066 82.1626 89.3573 80.4604L106.615 97.7179ZM59.9014 75.9862C59.9014 77.4228 59.3307 78.8005 58.3149 79.8164C57.2991 80.8322 55.9213 81.4029 54.4848 81.4029C47.3542 81.3943 40.5181 78.5582 35.4756 73.5167C30.433 68.4752 27.5956 61.6396 27.5856 54.5091C27.5812 53.0626 28.1475 51.6728 29.1617 50.6414C30.1758 49.61 31.5559 49.0203 33.0023 49.0004C33.7085 48.9889 34.4101 49.1179 35.0661 49.3799C35.7221 49.642 36.3194 50.0318 36.8234 50.5267C37.3274 51.0216 37.728 51.6118 38.0019 52.2629C38.2758 52.9141 38.4176 53.6131 38.4189 54.3195V54.5091C38.4232 58.7682 40.1174 62.8516 43.1296 65.8627C46.1417 68.8738 50.2257 70.5667 54.4848 70.5695C55.9213 70.5695 57.2991 71.1402 58.3149 72.156C59.3307 73.1719 59.9014 74.5496 59.9014 75.9862Z" fill="white"/>
<path d="M58.3149 79.8164C59.3307 78.8005 59.9014 77.4228 59.9014 75.9862C59.9014 74.5496 59.3307 73.1719 58.3149 72.156C57.2991 71.1402 55.9213 70.5695 54.4848 70.5695C50.2257 70.5667 46.1417 68.8738 43.1296 65.8627C40.1174 62.8516 38.4232 58.7682 38.4189 54.5091V54.3195C38.4176 53.6131 38.2758 52.9141 38.0019 52.2629C37.728 51.6118 37.3274 51.0216 36.8234 50.5267C36.3194 50.0318 35.7221 49.642 35.0661 49.3799C34.4101 49.1179 33.7085 48.9889 33.0023 49.0004C31.5559 49.0203 30.1758 49.61 29.1617 50.6414C28.1475 51.6728 27.5812 53.0626 27.5856 54.5091C27.5956 61.6396 30.433 68.4752 35.4756 73.5167C40.5181 78.5582 47.3542 81.3943 54.4848 81.4029C55.9213 81.4029 57.2991 80.8322 58.3149 79.8164Z" fill="white"/>
<path d="M85.2568 23.737C79.7027 18.1844 72.749 14.239 65.1335 12.3194C57.518 10.3998 49.5249 10.5777 42.0024 12.8342C34.4799 15.0907 27.7086 19.3416 22.407 25.1358C17.1054 30.93 13.4713 38.0514 11.8903 45.7443C10.3093 53.4372 10.8405 61.4146 13.4273 68.83C16.0142 76.2454 20.5604 82.8221 26.5833 87.8624C32.6063 92.9026 39.8814 96.2183 47.6367 97.4575C55.392 98.6968 63.3381 97.8135 70.6318 94.9012L90.0235 114.298C93.2364 117.514 97.5952 119.322 102.141 119.324C106.687 119.326 111.047 117.522 114.263 114.309C117.479 111.096 119.287 106.737 119.289 102.192C119.291 97.6458 117.487 93.2853 114.274 90.0695L94.8823 70.6779C98.0393 62.7689 98.8102 54.1082 97.0996 45.7659C95.389 37.4236 91.2718 29.7653 85.2568 23.737ZM54.4793 87.1933C46.9191 87.1957 39.592 84.5768 33.7462 79.7826C27.9005 74.9885 23.8978 68.3157 22.4202 60.9013C20.9427 53.4869 22.0816 45.7895 25.6429 39.1207C29.2043 32.4519 34.9677 27.2241 41.9513 24.3282C48.9349 21.4323 56.7065 21.0474 63.9421 23.239C71.1776 25.4307 77.4295 30.0633 81.6324 36.3476C85.8353 42.6318 87.7293 50.179 86.9916 57.7031C86.2539 65.2273 82.9302 72.2629 77.5868 77.6112C74.5591 80.6556 70.9581 83.0699 66.9919 84.7145C63.0258 86.3592 58.773 87.2017 54.4793 87.1933ZM106.615 97.7179C107.747 98.9111 108.369 100.499 108.348 102.144C108.326 103.789 107.663 105.361 106.5 106.524C105.337 107.688 103.765 108.351 102.12 108.372C100.475 108.394 98.8867 107.772 97.6935 106.639L80.436 89.3816C82.1383 88.131 83.7493 86.7607 85.2568 85.2812C86.7364 83.7736 88.1066 82.1626 89.3573 80.4604L106.615 97.7179ZM59.9014 75.9862C59.9014 77.4228 59.3307 78.8005 58.3149 79.8164C57.2991 80.8322 55.9213 81.4029 54.4848 81.4029C47.3542 81.3943 40.5181 78.5582 35.4756 73.5167C30.433 68.4752 27.5956 61.6396 27.5856 54.5091C27.5812 53.0626 28.1475 51.6728 29.1617 50.6414C30.1758 49.61 31.5559 49.0203 33.0023 49.0004C33.7085 48.9889 34.4101 49.1179 35.0661 49.3799C35.7221 49.642 36.3194 50.0318 36.8234 50.5267C37.3274 51.0216 37.728 51.6118 38.0019 52.2629C38.2758 52.9141 38.4176 53.6131 38.4189 54.3195V54.5091C38.4232 58.7682 40.1174 62.8516 43.1296 65.8627C46.1417 68.8738 50.2257 70.5667 54.4848 70.5695C55.9213 70.5695 57.2991 71.1402 58.3149 72.156C59.3307 73.1719 59.9014 74.5496 59.9014 75.9862Z" stroke="white" stroke-width="0.00192746"/>
<path d="M58.3149 79.8164C59.3307 78.8005 59.9014 77.4228 59.9014 75.9862C59.9014 74.5496 59.3307 73.1719 58.3149 72.156C57.2991 71.1402 55.9213 70.5695 54.4848 70.5695C50.2257 70.5667 46.1417 68.8738 43.1296 65.8627C40.1174 62.8516 38.4232 58.7682 38.4189 54.5091V54.3195C38.4176 53.6131 38.2758 52.9141 38.0019 52.2629C37.728 51.6118 37.3274 51.0216 36.8234 50.5267C36.3194 50.0318 35.7221 49.642 35.0661 49.3799C34.4101 49.1179 33.7085 48.9889 33.0023 49.0004C31.5559 49.0203 30.1758 49.61 29.1617 50.6414C28.1475 51.6728 27.5812 53.0626 27.5856 54.5091C27.5956 61.6396 30.433 68.4752 35.4756 73.5167C40.5181 78.5582 47.3542 81.3943 54.4848 81.4029C55.9213 81.4029 57.2991 80.8322 58.3149 79.8164Z" stroke="white" stroke-width="0.00192746"/>
<path d="M58.3153 79.8163C59.3311 78.8005 59.9018 77.4228 59.9018 75.9862C59.9018 74.5496 59.3311 73.1718 58.3153 72.156C57.2995 71.1402 55.9217 70.5695 54.4851 70.5695C50.226 70.5666 46.1421 68.8738 43.13 65.8627C40.1178 62.8515 38.4236 58.7682 38.4193 54.5091V54.3195C38.418 53.6131 38.2762 52.914 38.0023 52.2629C37.7284 51.6118 37.3278 51.0216 36.8238 50.5267C36.3198 50.0318 35.7224 49.6419 35.0664 49.3799C34.4105 49.1179 33.7089 48.9889 33.0026 49.0003C31.5563 49.0203 30.1762 49.61 29.1621 50.6414C28.1479 51.6728 27.5815 53.0626 27.586 54.5091C27.596 61.6396 30.4334 68.4751 35.476 73.5167C40.5185 78.5582 47.3546 81.3943 54.4851 81.4029C55.9217 81.4029 57.2995 80.8322 58.3153 79.8163Z" fill="#FFE6AE" stroke="white" stroke-width="0.00192746"/>
</svg>
