<svg width="62" height="62" viewBox="0 0 62 62" fill="none" xmlns="http://www.w3.org/2000/svg">
<path d="M31.3621 33.34C31.1521 33.31 30.8821 33.31 30.6421 33.34C25.3621 33.16 21.1621 28.84 21.1621 23.5299C21.1621 18.0999 25.5421 13.6899 31.0021 13.6899C36.4321 13.6899 40.8421 18.0999 40.8421 23.5299C40.8121 28.84 36.6421 33.16 31.3621 33.34Z" stroke="black" stroke-linecap="round" stroke-linejoin="round"/>
<path d="M51.2194 53.1402C45.8794 58.0302 38.7994 61.0002 30.9994 61.0002C23.1993 61.0002 16.1193 58.0302 10.7793 53.1402C11.0793 50.3202 12.8793 47.5602 16.0893 45.4002C24.3093 39.9402 37.7494 39.9402 45.9094 45.4002C49.1194 47.5602 50.9194 50.3202 51.2194 53.1402Z" stroke="black" stroke-linecap="round" stroke-linejoin="round"/>
<path d="M31 61C47.5684 61 61 47.5684 61 31C61 14.4314 47.5684 1 31 1C14.4314 1 1 14.4314 1 31C1 47.5684 14.4314 61 31 61Z" stroke="black" stroke-linecap="round" stroke-linejoin="round"/>
</svg>
