<svg width="31" height="31" viewBox="0 0 31 31" fill="none" xmlns="http://www.w3.org/2000/svg">
<path d="M21.2653 3.75592C19.6845 2.17556 17.7054 1.05263 15.5379 0.506288C13.3704 -0.0400532 11.0955 0.0105772 8.95445 0.652806C6.81343 1.29503 4.8862 2.5049 3.37728 4.15403C1.86836 5.80315 0.834042 7.83001 0.384073 10.0195C-0.065896 12.209 0.0852745 14.4795 0.821543 16.5901C1.55781 18.7006 2.85171 20.5725 4.56594 22.007C6.28017 23.4415 8.35078 24.3852 10.5581 24.7379C12.7653 25.0906 15.0269 24.8392 17.1028 24.0103L22.622 29.531C23.5364 30.4463 24.777 30.9608 26.0708 30.9614C27.3646 30.962 28.6057 30.4486 29.5209 29.5341C30.4362 28.6197 30.9507 27.3791 30.9513 26.0853C30.9519 24.7915 30.4385 23.5504 29.524 22.6352L24.0049 17.116C24.9034 14.865 25.1228 12.4 24.6359 10.0257C24.1491 7.65134 22.9773 5.47165 21.2653 3.75592ZM12.5056 21.8166C10.3538 21.8172 8.2684 21.0718 6.60461 19.7074C4.94081 18.3429 3.8016 16.4437 3.38106 14.3335C2.96052 12.2232 3.28467 10.0324 4.29828 8.13435C5.3119 6.2363 6.95227 4.7484 8.9399 3.92418C10.9275 3.09996 13.1395 2.99041 15.1988 3.61418C17.2582 4.23796 19.0375 5.55647 20.2338 7.34507C21.43 9.13368 21.969 11.2817 21.7591 13.4232C21.5491 15.5647 20.6031 17.5671 19.0823 19.0893C18.2206 19.9558 17.1957 20.643 16.0669 21.1111C14.938 21.5792 13.7276 21.8189 12.5056 21.8166ZM27.3441 24.812C27.6665 25.1516 27.8435 25.6037 27.8374 26.0719C27.8313 26.5401 27.6426 26.9874 27.3115 27.3185C26.9804 27.6496 26.5331 27.8383 26.0649 27.8444C25.5967 27.8505 25.1446 27.6735 24.805 27.3511L19.8932 22.4394C20.3777 22.0834 20.8362 21.6934 21.2653 21.2723C21.6864 20.8433 22.0764 20.3847 22.4324 19.9003L27.3441 24.812ZM14.0488 18.6268C14.0488 19.0357 13.8864 19.4278 13.5972 19.717C13.3081 20.0061 12.916 20.1685 12.5071 20.1685C10.4777 20.1661 8.532 19.3589 7.09681 17.924C5.66162 16.4891 4.85405 14.5436 4.8512 12.5141C4.84994 12.1024 5.01114 11.7069 5.29978 11.4133C5.58843 11.1198 5.98122 10.9519 6.39287 10.9463C6.59389 10.943 6.79356 10.9797 6.98026 11.0543C7.16697 11.1289 7.33698 11.2398 7.48043 11.3807C7.62388 11.5215 7.7379 11.6895 7.81585 11.8748C7.89381 12.0602 7.93415 12.2591 7.93453 12.4602V12.5141C7.93576 13.7263 8.41795 14.8885 9.27526 15.7455C10.1326 16.6026 11.2949 17.0844 12.5071 17.0852C12.916 17.0852 13.3081 17.2476 13.5972 17.5367C13.8864 17.8258 14.0488 18.218 14.0488 18.6268Z" fill="#611991"/>
<path d="M13.5972 19.717C13.8864 19.4278 14.0488 19.0357 14.0488 18.6268C14.0488 18.218 13.8864 17.8258 13.5972 17.5367C13.3081 17.2476 12.916 17.0852 12.5071 17.0852C11.2949 17.0844 10.1326 16.6026 9.27526 15.7455C8.41795 14.8885 7.93576 13.7263 7.93453 12.5141V12.4602C7.93415 12.2591 7.89381 12.0602 7.81585 11.8748C7.7379 11.6895 7.62388 11.5215 7.48043 11.3807C7.33698 11.2398 7.16697 11.1289 6.98026 11.0543C6.79356 10.9797 6.59389 10.943 6.39287 10.9463C5.98122 10.9519 5.58843 11.1198 5.29978 11.4133C5.01114 11.7069 4.84994 12.1024 4.8512 12.5141C4.85405 14.5436 5.66162 16.4891 7.09681 17.924C8.532 19.3589 10.4777 20.1661 12.5071 20.1685C12.916 20.1685 13.3081 20.0061 13.5972 19.717Z" fill="#611991"/>
<path d="M21.2653 3.75592C19.6845 2.17556 17.7054 1.05263 15.5379 0.506288C13.3704 -0.0400532 11.0955 0.0105772 8.95445 0.652806C6.81343 1.29503 4.8862 2.5049 3.37728 4.15403C1.86836 5.80315 0.834042 7.83001 0.384073 10.0195C-0.065896 12.209 0.0852745 14.4795 0.821543 16.5901C1.55781 18.7006 2.85171 20.5725 4.56594 22.007C6.28017 23.4415 8.35078 24.3852 10.5581 24.7379C12.7653 25.0906 15.0269 24.8392 17.1028 24.0103L22.622 29.531C23.5364 30.4463 24.777 30.9608 26.0708 30.9614C27.3646 30.962 28.6057 30.4486 29.5209 29.5341C30.4362 28.6197 30.9507 27.3791 30.9513 26.0853C30.9519 24.7915 30.4385 23.5504 29.524 22.6352L24.0049 17.116C24.9034 14.865 25.1228 12.4 24.6359 10.0257C24.1491 7.65134 22.9773 5.47165 21.2653 3.75592ZM12.5056 21.8166C10.3538 21.8172 8.2684 21.0718 6.60461 19.7074C4.94081 18.3429 3.8016 16.4437 3.38106 14.3335C2.96052 12.2232 3.28467 10.0324 4.29828 8.13435C5.3119 6.2363 6.95227 4.7484 8.9399 3.92418C10.9275 3.09996 13.1395 2.99041 15.1988 3.61418C17.2582 4.23796 19.0375 5.55647 20.2338 7.34507C21.43 9.13368 21.969 11.2817 21.7591 13.4232C21.5491 15.5647 20.6031 17.5671 19.0823 19.0893C18.2206 19.9558 17.1957 20.643 16.0669 21.1111C14.938 21.5792 13.7276 21.8189 12.5056 21.8166ZM27.3441 24.812C27.6665 25.1516 27.8435 25.6037 27.8374 26.0719C27.8313 26.5401 27.6426 26.9874 27.3115 27.3185C26.9804 27.6496 26.5331 27.8383 26.0649 27.8444C25.5967 27.8505 25.1446 27.6735 24.805 27.3511L19.8932 22.4394C20.3777 22.0834 20.8362 21.6934 21.2653 21.2723C21.6864 20.8433 22.0764 20.3847 22.4324 19.9003L27.3441 24.812ZM14.0488 18.6268C14.0488 19.0357 13.8864 19.4278 13.5972 19.717C13.3081 20.0061 12.916 20.1685 12.5071 20.1685C10.4777 20.1661 8.532 19.3589 7.09681 17.924C5.66162 16.4891 4.85405 14.5436 4.8512 12.5141C4.84994 12.1024 5.01114 11.7069 5.29978 11.4133C5.58843 11.1198 5.98122 10.9519 6.39287 10.9463C6.59389 10.943 6.79356 10.9797 6.98026 11.0543C7.16697 11.1289 7.33698 11.2398 7.48043 11.3807C7.62388 11.5215 7.7379 11.6895 7.81585 11.8748C7.89381 12.0602 7.93415 12.2591 7.93453 12.4602V12.5141C7.93576 13.7263 8.41795 14.8885 9.27526 15.7455C10.1326 16.6026 11.2949 17.0844 12.5071 17.0852C12.916 17.0852 13.3081 17.2476 13.5972 17.5367C13.8864 17.8258 14.0488 18.218 14.0488 18.6268Z" stroke="#611991" stroke-width="0.00192746"/>
<path d="M13.5972 19.717C13.8864 19.4278 14.0488 19.0357 14.0488 18.6268C14.0488 18.218 13.8864 17.8258 13.5972 17.5367C13.3081 17.2476 12.916 17.0852 12.5071 17.0852C11.2949 17.0844 10.1326 16.6026 9.27526 15.7455C8.41795 14.8885 7.93576 13.7263 7.93453 12.5141V12.4602C7.93415 12.2591 7.89381 12.0602 7.81585 11.8748C7.7379 11.6895 7.62388 11.5215 7.48043 11.3807C7.33698 11.2398 7.16697 11.1289 6.98026 11.0543C6.79356 10.9797 6.59389 10.943 6.39287 10.9463C5.98122 10.9519 5.58843 11.1198 5.29978 11.4133C5.01114 11.7069 4.84994 12.1024 4.8512 12.5141C4.85405 14.5436 5.66162 16.4891 7.09681 17.924C8.532 19.3589 10.4777 20.1661 12.5071 20.1685C12.916 20.1685 13.3081 20.0061 13.5972 19.717Z" stroke="#611991" stroke-width="0.00192746"/>
</svg>
