<svg width="51" height="32" viewBox="0 0 51 32" fill="none" xmlns="http://www.w3.org/2000/svg">
<path fill-rule="evenodd" clip-rule="evenodd" d="M0.75 2.25C0.75 0.73123 1.99367 0.5 3.52778 0.5H47.9722C49.5064 0.5 50.75 0.73123 50.75 2.25C50.75 3.76877 49.5064 4 47.9722 4H3.52778C1.99367 4 0.75 3.76877 0.75 2.25ZM9.08333 16C9.08333 14.4812 10.327 14.25 11.8611 14.25H39.6389C41.1731 14.25 42.4167 14.4812 42.4167 16C42.4167 17.5188 41.1731 17.75 39.6389 17.75H11.8611C10.327 17.75 9.08333 17.5188 9.08333 16ZM17.4167 29.75C17.4167 28.2312 18.6603 28 20.1944 28H31.3056C32.8397 28 34.0833 28.2312 34.0833 29.75C34.0833 31.2688 32.8397 31.5 31.3056 31.5H20.1944C18.6603 31.5 17.4167 31.2688 17.4167 29.75Z" fill="#611991"/>
</svg>
