<svg width="91" height="92" viewBox="0 0 91 92" fill="none" xmlns="http://www.w3.org/2000/svg">
<circle cx="45.7225" cy="45.8853" r="45.2107" fill="#B695CC"/>
<path d="M42.8115 37.4381H48.1864V41.4693C48.1864 41.8256 48.0448 42.1674 47.7928 42.4194C47.5408 42.6714 47.1991 42.813 46.8427 42.813H44.1552C43.7989 42.813 43.4571 42.6714 43.2051 42.4194C42.9531 42.1674 42.8115 41.8256 42.8115 41.4693V37.4381Z" fill="white" fill-opacity="0.5"/>
<path d="M50.8747 54.9064H40.1249C39.0558 54.9064 38.0304 54.4817 37.2744 53.7257C36.5185 52.9697 36.0938 51.9444 36.0938 50.8753V40.1255C36.0938 39.0564 36.5185 38.031 37.2744 37.275C38.0304 36.5191 39.0558 36.0943 40.1249 36.0943H50.8747C51.9438 36.0943 52.9691 36.5191 53.7251 37.275C54.4811 38.031 54.9058 39.0564 54.9058 40.1255V50.8753C54.9058 51.9444 54.4811 52.9697 53.7251 53.7257C52.9691 54.4817 51.9438 54.9064 50.8747 54.9064ZM40.1249 38.7818C39.7685 38.7818 39.4268 38.9234 39.1748 39.1754C38.9228 39.4273 38.7812 39.7691 38.7812 40.1255V50.8753C38.7812 51.2316 38.9228 51.5734 39.1748 51.8254C39.4268 52.0774 39.7685 52.219 40.1249 52.219H50.8747C51.231 52.219 51.5728 52.0774 51.8248 51.8254C52.0768 51.5734 52.2184 51.2316 52.2184 50.8753V40.1255C52.2184 39.7691 52.0768 39.4273 51.8248 39.1754C51.5728 38.9234 51.231 38.7818 50.8747 38.7818H40.1249Z" fill="#611991"/>
<path d="M44.1562 49.5316H42.8125C42.4561 49.5316 42.1143 49.39 41.8623 49.138C41.6103 48.886 41.4688 48.5442 41.4688 48.1879C41.4688 47.8315 41.6103 47.4897 41.8623 47.2377C42.1143 46.9857 42.4561 46.8441 42.8125 46.8441H44.1562C44.5126 46.8441 44.8543 46.9857 45.1063 47.2377C45.3583 47.4897 45.4999 47.8315 45.4999 48.1879C45.4999 48.5442 45.3583 48.886 45.1063 49.138C44.8543 49.39 44.5126 49.5316 44.1562 49.5316Z" fill="#611991"/>
<path d="M64.3116 56.5727L62.9679 61.9475C62.9103 62.1774 62.793 62.388 62.6278 62.5579C62.4626 62.7278 62.2554 62.851 62.0272 62.915C61.8972 62.9572 61.7607 62.9754 61.6241 62.9688C61.4473 62.9698 61.272 62.9359 61.1083 62.869C60.9446 62.8022 60.7957 62.7036 60.6701 62.5791L59.7026 61.625C58.5978 62.615 57.3906 63.4844 56.1014 64.2184L55.4162 64.5812C52.3555 66.1794 48.9522 67.0094 45.4995 66.9999C39.7975 66.9999 34.329 64.7348 30.2971 60.7029C26.2651 56.6709 24 51.2024 24 45.5004C23.9995 43.8212 24.1979 42.1478 24.5912 40.5152C24.6949 40.1934 24.916 39.9226 25.2105 39.7566C25.5051 39.5906 25.8513 39.5418 26.1803 39.6198C26.5092 39.6977 26.7966 39.8969 26.9853 40.1774C27.1739 40.4579 27.2499 40.7993 27.1981 41.1333C26.8597 42.5644 26.6883 44.0299 26.6874 45.5004C26.6865 48.7913 27.5488 52.0248 29.1883 54.8782C30.8278 57.7316 33.1872 60.1049 36.0308 61.7613C38.8744 63.4177 42.1028 64.2992 45.3936 64.3177C48.6844 64.3363 51.9225 63.4912 54.7846 61.8669L54.9055 61.7863C55.9395 61.1949 56.9118 60.5017 57.808 59.717L56.6389 58.5479C56.4662 58.3756 56.3437 58.1594 56.2845 57.9227C56.2253 57.686 56.2317 57.4376 56.303 57.2042C56.367 56.976 56.4902 56.7689 56.6601 56.6037C56.83 56.4385 57.0406 56.3212 57.2705 56.2636L62.6454 54.9199C62.8752 54.8536 63.1186 54.85 63.3504 54.9093C63.5821 54.9685 63.7939 55.0886 63.9637 55.2571C64.1336 55.4255 64.2553 55.6363 64.3165 55.8676C64.3776 56.0989 64.3759 56.3423 64.3116 56.5727Z" fill="white" fill-opacity="0.5"/>
<path d="M66.9987 45.5004C66.9992 47.1797 66.8007 48.8531 66.4075 50.4856C66.3365 50.7862 66.1642 51.0532 65.9194 51.2417C65.6747 51.4301 65.3725 51.5285 65.0637 51.5203C64.9612 51.5343 64.8572 51.5343 64.7547 51.5203C64.4096 51.4373 64.1113 51.2212 63.925 50.9191C63.7387 50.617 63.6795 50.2534 63.7603 49.9078C64.1154 48.4652 64.3003 46.986 64.3112 45.5004C64.3122 42.2095 63.4499 38.976 61.8104 36.1226C60.1709 33.2692 57.8115 30.8959 54.9679 29.2395C52.1243 27.5831 48.8959 26.7016 45.6051 26.6831C42.3143 26.6646 39.0762 27.5096 36.2141 29.1339C35.1344 29.7489 34.1213 30.4739 33.1907 31.2973L34.3597 32.4529C34.5325 32.6253 34.655 32.8414 34.7142 33.0781C34.7734 33.3149 34.767 33.5632 34.6957 33.7966C34.6317 34.0248 34.5085 34.232 34.3386 34.3972C34.1687 34.5623 33.9581 34.6797 33.7282 34.7372L28.3533 36.0809L28.0308 36.0944C27.854 36.0954 27.6787 36.0615 27.515 35.9946C27.3513 35.9278 27.2023 35.8292 27.0768 35.7047C26.9017 35.5337 26.7767 35.3182 26.7151 35.0814C26.6535 34.8446 26.6578 34.5955 26.7274 34.361L28.0711 28.9861C28.1308 28.7587 28.249 28.5509 28.4141 28.3835C28.5791 28.2161 28.7852 28.0949 29.0117 28.0321C29.2451 27.9608 29.4935 27.9544 29.7302 28.0135C29.967 28.0727 30.1831 28.1953 30.3555 28.368L31.2826 29.3758C32.3962 28.3945 33.6074 27.53 34.8972 26.7958C38.1679 24.9419 41.8676 23.978 45.6271 24.0004C49.3866 24.0228 53.0746 25.0306 56.323 26.9233C59.5714 28.8161 62.2666 31.5275 64.1399 34.7872C66.0131 38.0469 66.9988 41.7408 66.9987 45.5004Z" fill="white" fill-opacity="0.5"/>
</svg>
