<svg width="92" height="92" viewBox="0 0 92 92" fill="none" xmlns="http://www.w3.org/2000/svg">
<circle cx="46.033" cy="45.8853" r="45.2107" fill="#B695CC"/>
<path d="M41.7601 44.8335C41.5717 44.8147 41.3457 44.8147 41.1385 44.8335C36.6551 44.6828 33.0947 41.0094 33.0947 36.4883C33.0947 31.8731 36.8246 28.1244 41.4587 28.1244C46.074 28.1244 49.8227 31.8731 49.8227 36.4883C49.8039 41.0094 46.2435 44.6828 41.7601 44.8335Z" stroke="#611991" stroke-width="2.82567" stroke-linecap="round" stroke-linejoin="round"/>
<path d="M55.4158 31.8911C59.0703 31.8911 62.009 34.8487 62.009 38.4844C62.009 42.0447 59.1834 44.9457 55.6607 45.0776C55.51 45.0588 55.3404 45.0588 55.1709 45.0776" stroke="#611991" stroke-width="2.82567" stroke-linecap="round" stroke-linejoin="round"/>
<path d="M32.3419 51.7839C27.7832 54.8356 27.7832 59.8088 32.3419 62.8416C37.5223 66.3078 46.0182 66.3078 51.1986 62.8416C55.7573 59.7899 55.7573 54.8167 51.1986 51.7839C46.037 48.3365 37.5411 48.3365 32.3419 51.7839Z" stroke="#611991" stroke-width="2.82567" stroke-linecap="round" stroke-linejoin="round"/>
<path d="M59.0527 62.0324C60.4091 61.7499 61.69 61.2036 62.7449 60.3935C65.6836 58.1895 65.6836 54.5538 62.7449 52.3498C61.7089 51.5586 60.4467 51.0311 59.1092 50.7297" stroke="#611991" stroke-width="2.82567" stroke-linecap="round" stroke-linejoin="round"/>
</svg>
