<svg width="110" height="113" viewBox="0 0 110 113" fill="none" xmlns="http://www.w3.org/2000/svg">
<path d="M109.823 59.4403H92.4281V99.518H109.823" stroke="white" stroke-width="6.76"/>
<path d="M92.4277 64.45H75.0324C72.7256 64.45 70.5133 65.5056 68.8822 67.3846C67.251 69.2636 66.3347 71.8121 66.3347 74.4694H46.7649C45.0348 74.4694 43.3756 75.2612 42.1523 76.6704C40.9289 78.0797 40.2416 79.991 40.2416 81.984C40.2416 83.977 40.9289 85.8884 42.1523 87.2976C43.3756 88.7069 45.0348 89.4986 46.7649 89.4986H70.6835" stroke="white" stroke-width="6.76"/>
<path d="M40.2416 81.4831L25.8252 71.4636C23.8528 70.11 21.5979 69.4 19.302 69.4096C17.6509 69.4077 16.0156 69.7806 14.4896 70.5069C12.9637 71.2333 11.5769 72.2989 10.4086 73.6428L5.4509 79.4792L44.4383 106.431C47.3892 108.464 50.7632 109.537 54.2014 109.537C56.4746 109.535 58.7287 109.06 60.8551 108.135L92.4277 94.5083" stroke="white" stroke-width="6.76"/>
<path d="M46.7644 25.7082V57.7703M46.7644 25.7082C46.7644 18.2263 46.7644 14.4854 48.0284 11.6277C49.1403 9.11395 50.9143 7.07025 53.0964 5.78943C55.5771 4.33337 58.8246 4.33337 65.3194 4.33337H68.2187C69.8424 4.33337 70.6542 4.33337 71.2744 4.69738C71.8199 5.0176 72.2635 5.52853 72.5414 6.15694C72.8574 6.87136 72.8574 7.80661 72.8574 9.67707V45.747C72.8574 47.6176 72.8574 48.5528 72.5414 49.2672C72.2635 49.8957 71.8199 50.4064 71.2744 50.7267C70.6542 51.0907 69.8424 51.0907 68.2187 51.0907H59.6756C58.1094 51.0907 57.3264 51.0907 56.5692 51.2464C55.8971 51.3843 55.2414 51.6127 54.6157 51.9277C53.9109 52.282 53.2593 52.7823 51.9563 53.7833L46.7644 57.7703M46.7644 25.7082C46.7644 18.2263 46.7644 14.4854 45.5003 11.6277C44.3885 9.11395 42.6144 7.07025 40.4325 5.78943C37.9516 4.33337 34.7042 4.33337 28.2093 4.33337H25.3101C23.6862 4.33337 22.8744 4.33337 22.2543 4.69738C21.7087 5.0176 21.2654 5.52853 20.9873 6.15694C20.6713 6.87136 20.6713 7.80661 20.6713 9.67707V45.747C20.6713 47.6176 20.6713 48.5528 20.9873 49.2672C21.2654 49.8957 21.7087 50.4064 22.2543 50.7267C22.8744 51.0907 23.6862 51.0907 25.3101 51.0907H33.8532C35.4194 51.0907 36.2025 51.0907 36.9595 51.2464C37.6318 51.3843 38.2873 51.6127 38.913 51.9277C39.6178 52.282 40.2695 52.7823 41.5724 53.7833L46.7644 57.7703" stroke="#ADBEDB" stroke-width="6.76" stroke-linecap="round" stroke-linejoin="round"/>
</svg>
