<svg width="44" height="38" viewBox="0 0 44 38" fill="none" xmlns="http://www.w3.org/2000/svg">
<path fill-rule="evenodd" clip-rule="evenodd" d="M13.75 30C13.75 29.1716 13.0784 28.5 12.25 28.5H2.25C1.42158 28.5 0.75 29.1716 0.75 30C0.75 30.8284 1.42158 31.5 2.25 31.5H12.25C13.0784 31.5 13.75 30.8284 13.75 30Z" fill="#611991" stroke="black" stroke-width="0.00024"/>
<path fill-rule="evenodd" clip-rule="evenodd" d="M30.75 8C30.75 7.17158 31.4216 6.5 32.25 6.5H42.25C43.0784 6.5 43.75 7.17158 43.75 8C43.75 8.82842 43.0784 9.5 42.25 9.5H32.25C31.4216 9.5 30.75 8.82842 30.75 8Z" fill="#611991" stroke="black" stroke-width="0.00024"/>
<path fill-rule="evenodd" clip-rule="evenodd" d="M43.75 30C43.75 29.1716 43.0784 28.5 42.25 28.5H24.25C23.4216 28.5 22.75 29.1716 22.75 30C22.75 30.8284 23.4216 31.5 24.25 31.5H42.25C43.0784 31.5 43.75 30.8284 43.75 30Z" fill="#611991" stroke="black" stroke-width="0.00024"/>
<path fill-rule="evenodd" clip-rule="evenodd" d="M0.75 8C0.75 7.17158 1.42158 6.5 2.25 6.5H20.25C21.0784 6.5 21.75 7.17158 21.75 8C21.75 8.82842 21.0784 9.5 20.25 9.5H2.25C1.42158 9.5 0.75 8.82842 0.75 8Z" fill="#611991" stroke="black" stroke-width="0.00024"/>
<path fill-rule="evenodd" clip-rule="evenodd" d="M10.75 26C10.75 24.067 12.317 22.5 14.25 22.5H22.25C24.183 22.5 25.75 24.067 25.75 26V34C25.75 35.933 24.183 37.5 22.25 37.5H14.25C12.317 37.5 10.75 35.933 10.75 34V26ZM14.25 25.5C13.9739 25.5 13.75 25.7238 13.75 26V34C13.75 34.2762 13.9739 34.5 14.25 34.5H22.25C22.5262 34.5 22.75 34.2762 22.75 34V26C22.75 25.7238 22.5262 25.5 22.25 25.5H14.25Z" fill="#611991" stroke="black" stroke-width="0.00024"/>
<path fill-rule="evenodd" clip-rule="evenodd" d="M33.75 4C33.75 2.067 32.183 0.5 30.25 0.5H22.25C20.317 0.5 18.75 2.067 18.75 4V12C18.75 13.933 20.317 15.5 22.25 15.5H30.25C32.183 15.5 33.75 13.933 33.75 12V4ZM30.25 3.5C30.5262 3.5 30.75 3.72386 30.75 4V12C30.75 12.2761 30.5262 12.5 30.25 12.5H22.25C21.9738 12.5 21.75 12.2761 21.75 12V4C21.75 3.72386 21.9738 3.5 22.25 3.5H30.25Z" fill="#611991" stroke="black" stroke-width="0.00024"/>
</svg>
