<svg width="40" height="24" viewBox="0 0 40 24" fill="none" xmlns="http://www.w3.org/2000/svg">
<path d="M1.89474 0C0.848312 0 0 0.848311 0 1.89474C0 2.94116 0.848312 3.78947 1.89474 3.78947V0ZM37.2632 3.78947C38.3096 3.78947 39.1579 2.94116 39.1579 1.89474C39.1579 0.848311 38.3096 0 37.2632 0V3.78947ZM1.89474 10.1053C0.848312 10.1053 0 10.9536 0 12C0 13.0464 0.848312 13.8947 1.89474 13.8947V10.1053ZM37.1861 13.8947C38.2325 13.8947 39.0809 13.0464 39.0809 12C39.0809 10.9536 38.2325 10.1053 37.1861 10.1053V13.8947ZM1.89474 20.2105C0.848312 20.2105 0 21.0589 0 22.1053C0 23.1517 0.848312 24 1.89474 24V20.2105ZM37.1399 24C38.1863 24 39.0347 23.1517 39.0347 22.1053C39.0347 21.0589 38.1863 20.2105 37.1399 20.2105V24ZM1.89474 3.78947H37.2632V0H1.89474V3.78947ZM1.89474 13.8947H37.1861V10.1053H1.89474V13.8947ZM1.89474 24H37.1399V20.2105H1.89474V24Z" fill="#611991"/>
</svg>
