<svg width="118" height="118" viewBox="0 0 118 118" fill="none" xmlns="http://www.w3.org/2000/svg">
<path d="M118 59C118 91.5848 91.5848 118 59 118C26.4152 118 0 91.5848 0 59C0 26.4152 26.4152 0 59 0C91.5848 0 118 26.4152 118 59ZM10.3955 59C10.3955 85.8435 32.1565 107.604 59 107.604C85.8435 107.604 107.604 85.8435 107.604 59C107.604 32.1565 85.8435 10.3955 59 10.3955C32.1565 10.3955 10.3955 32.1565 10.3955 59Z" fill="white"/>
<path d="M0 59C-1.86598e-07 74.6478 6.21605 89.6547 17.2807 100.719C28.3453 111.784 43.3522 118 59 118C74.6478 118 89.6546 111.784 100.719 100.719C111.784 89.6547 118 74.6478 118 59L107.604 59C107.604 71.8907 102.484 84.2534 93.3685 93.3686C84.2534 102.484 71.8907 107.604 59 107.604C46.1093 107.604 33.7466 102.484 24.6315 93.3685C15.5163 84.2534 10.3955 71.8907 10.3955 59H0Z" fill="#CAFFB7"/>
<path d="M37.3636 55.2344C37.2145 54.7159 37.005 54.2578 36.7351 53.8601C36.4652 53.4553 36.1349 53.1143 35.7443 52.8374C35.3608 52.5533 34.9205 52.3366 34.4233 52.1875C33.9332 52.0384 33.3899 51.9638 32.7933 51.9638C31.6783 51.9638 30.6982 52.2408 29.853 52.7947C29.0149 53.3487 28.3615 54.1548 27.8928 55.2131C27.424 56.2642 27.1896 57.5497 27.1896 59.0696C27.1896 60.5895 27.4205 61.8821 27.8821 62.9474C28.3438 64.0128 28.9972 64.826 29.8423 65.3871C30.6875 65.9411 31.6854 66.218 32.8359 66.218C33.88 66.218 34.7713 66.0334 35.5099 65.6641C36.2557 65.2876 36.8239 64.7585 37.2145 64.0767C37.6122 63.3949 37.8111 62.5888 37.8111 61.6584L38.7486 61.7969H33.1236V58.3239H42.2536V61.0724C42.2536 62.9901 41.8487 64.6378 41.0391 66.0156C40.2294 67.3864 39.1143 68.4446 37.6939 69.1903C36.2734 69.929 34.647 70.2983 32.8146 70.2983C30.7692 70.2983 28.9723 69.8473 27.424 68.9453C25.8757 68.0362 24.6683 66.7472 23.8018 65.0781C22.9425 63.402 22.5128 61.4134 22.5128 59.1122C22.5128 57.3437 22.7685 55.767 23.2798 54.3821C23.7983 52.9901 24.5227 51.8111 25.4531 50.8452C26.3835 49.8793 27.4666 49.1442 28.7024 48.6399C29.9382 48.1357 31.277 47.8835 32.7188 47.8835C33.9545 47.8835 35.1051 48.0646 36.1705 48.4268C37.2358 48.782 38.1804 49.2862 39.0043 49.9396C39.8352 50.593 40.5135 51.3707 41.0391 52.2727C41.5646 53.1676 41.902 54.1548 42.0511 55.2344H37.3636ZM51.8268 70.3196C50.172 70.3196 48.7409 69.968 47.5335 69.2649C46.3332 68.5547 45.4064 67.5675 44.7529 66.3033C44.0995 65.032 43.7728 63.5582 43.7728 61.8821C43.7728 60.1918 44.0995 58.7145 44.7529 57.4503C45.4064 56.179 46.3332 55.1918 47.5335 54.4886C48.7409 53.7784 50.172 53.4233 51.8268 53.4233C53.4816 53.4233 54.9092 53.7784 56.1095 54.4886C57.3169 55.1918 58.2473 56.179 58.9007 57.4503C59.5541 58.7145 59.8808 60.1918 59.8808 61.8821C59.8808 63.5582 59.5541 65.032 58.9007 66.3033C58.2473 67.5675 57.3169 68.5547 56.1095 69.2649C54.9092 69.968 53.4816 70.3196 51.8268 70.3196ZM51.8481 66.804C52.601 66.804 53.2295 66.5909 53.7338 66.1648C54.238 65.7315 54.618 65.142 54.8737 64.3963C55.1365 63.6506 55.2679 62.8018 55.2679 61.8501C55.2679 60.8984 55.1365 60.0497 54.8737 59.304C54.618 58.5582 54.238 57.9687 53.7338 57.5355C53.2295 57.1023 52.601 56.8857 51.8481 56.8857C51.0882 56.8857 50.449 57.1023 49.9305 57.5355C49.4191 57.9687 49.0321 58.5582 48.7693 59.304C48.5136 60.0497 48.3858 60.8984 48.3858 61.8501C48.3858 62.8018 48.5136 63.6506 48.7693 64.3963C49.0321 65.142 49.4191 65.7315 49.9305 66.1648C50.449 66.5909 51.0882 66.804 51.8481 66.804ZM69.0252 70.3196C67.3704 70.3196 65.9393 69.968 64.7319 69.2649C63.5316 68.5547 62.6048 67.5675 61.9514 66.3033C61.298 65.032 60.9713 63.5582 60.9713 61.8821C60.9713 60.1918 61.298 58.7145 61.9514 57.4503C62.6048 56.179 63.5316 55.1918 64.7319 54.4886C65.9393 53.7784 67.3704 53.4233 69.0252 53.4233C70.6801 53.4233 72.1076 53.7784 73.3079 54.4886C74.5153 55.1918 75.4457 56.179 76.0991 57.4503C76.7525 58.7145 77.0792 60.1918 77.0792 61.8821C77.0792 63.5582 76.7525 65.032 76.0991 66.3033C75.4457 67.5675 74.5153 68.5547 73.3079 69.2649C72.1076 69.968 70.6801 70.3196 69.0252 70.3196ZM69.0466 66.804C69.7994 66.804 70.4279 66.5909 70.9322 66.1648C71.4365 65.7315 71.8164 65.142 72.0721 64.3963C72.3349 63.6506 72.4663 62.8018 72.4663 61.8501C72.4663 60.8984 72.3349 60.0497 72.0721 59.304C71.8164 58.5582 71.4365 57.9687 70.9322 57.5355C70.4279 57.1023 69.7994 56.8857 69.0466 56.8857C68.2866 56.8857 67.6474 57.1023 67.1289 57.5355C66.6176 57.9687 66.2305 58.5582 65.9677 59.304C65.712 60.0497 65.5842 60.8984 65.5842 61.8501C65.5842 62.8018 65.712 63.6506 65.9677 64.3963C66.2305 65.142 66.6176 65.7315 67.1289 66.1648C67.6474 66.5909 68.2866 66.804 69.0466 66.804ZM84.8601 70.2663C83.6172 70.2663 82.4914 69.9467 81.4829 69.3075C80.4815 68.6612 79.686 67.7131 79.0966 66.4631C78.5142 65.206 78.223 63.6648 78.223 61.8395C78.223 59.9645 78.5248 58.4055 79.1285 57.1626C79.7322 55.9126 80.5348 54.9787 81.5362 54.3608C82.5447 53.7358 83.6491 53.4233 84.8494 53.4233C85.7656 53.4233 86.5291 53.5795 87.1399 53.892C87.7578 54.1974 88.2549 54.581 88.6314 55.0426C89.0149 55.4972 89.3061 55.9446 89.5049 56.3849H89.6434V48.1818H94.1711V70H89.6967V67.3793H89.5049C89.2919 67.8338 88.99 68.2848 88.5994 68.7322C88.2159 69.1726 87.7152 69.5384 87.0973 69.8295C86.4865 70.1207 85.7407 70.2663 84.8601 70.2663ZM86.2983 66.6548C87.0298 66.6548 87.6477 66.456 88.152 66.0582C88.6633 65.6534 89.0539 65.0888 89.3238 64.3643C89.6008 63.6399 89.7393 62.7912 89.7393 61.8182C89.7393 60.8452 89.6044 60 89.3345 59.2827C89.0646 58.5653 88.674 58.0114 88.1626 57.6207C87.6512 57.2301 87.0298 57.0348 86.2983 57.0348C85.5525 57.0348 84.924 57.2372 84.4126 57.642C83.9012 58.0469 83.5142 58.608 83.2514 59.3253C82.9886 60.0426 82.8572 60.8736 82.8572 61.8182C82.8572 62.7699 82.9886 63.6115 83.2514 64.343C83.5213 65.0675 83.9083 65.6357 84.4126 66.0476C84.924 66.4524 85.5525 66.6548 86.2983 66.6548Z" fill="white"/>
</svg>
