<svg width="120" height="120" viewBox="0 0 120 120" fill="none" xmlns="http://www.w3.org/2000/svg">
<path d="M52.499 37.5027H67.4991V48.7527C67.4991 49.7473 67.104 50.7011 66.4007 51.4044C65.6975 52.1077 64.7436 52.5027 63.7491 52.5027H56.249C55.2545 52.5027 54.3006 52.1077 53.5974 51.4044C52.8941 50.7011 52.499 49.7473 52.499 48.7527V37.5027Z" fill="white" stroke="#811F1F" stroke-width="0.000240932"/>
<path d="M74.9997 86.2528H44.9996C42.0159 86.2528 39.1544 85.0675 37.0446 82.9577C34.9348 80.8479 33.7495 77.9864 33.7495 75.0027V45.0026C33.7495 42.0189 34.9348 39.1574 37.0446 37.0476C39.1544 34.9378 42.0159 33.7526 44.9996 33.7526H74.9997C77.9834 33.7526 80.8449 34.9378 82.9547 37.0476C85.0645 39.1574 86.2497 42.0189 86.2497 45.0026V75.0027C86.2497 77.9864 85.0645 80.8479 82.9547 82.9577C80.8449 85.0675 77.9834 86.2528 74.9997 86.2528ZM44.9996 41.2526C44.005 41.2526 43.0512 41.6477 42.3479 42.351C41.6446 43.0542 41.2495 44.008 41.2495 45.0026V75.0027C41.2495 75.9973 41.6446 76.9511 42.3479 77.6544C43.0512 78.3577 44.005 78.7528 44.9996 78.7528H74.9997C75.9943 78.7528 76.9481 78.3577 77.6513 77.6544C78.3546 76.9511 78.7497 75.9973 78.7497 75.0027V45.0026C78.7497 44.008 78.3546 43.0542 77.6513 42.351C76.9481 41.6477 75.9943 41.2526 74.9997 41.2526H44.9996Z" fill="#F7A2F2" stroke="#811F1F" stroke-width="0.000240932"/>
<path d="M56.2498 71.2528H52.4998C51.5052 71.2528 50.5514 70.8578 49.8481 70.1545C49.1448 69.4512 48.7498 68.4974 48.7498 67.5028C48.7498 66.5083 49.1448 65.5544 49.8481 64.8512C50.5514 64.1479 51.5052 63.7528 52.4998 63.7528H56.2498C57.2444 63.7528 58.1982 64.1479 58.9014 64.8512C59.6047 65.5544 59.9998 66.5083 59.9998 67.5028C59.9998 68.4974 59.6047 69.4512 58.9014 70.1545C58.1982 70.8578 57.2444 71.2528 56.2498 71.2528Z" fill="#F7A2F2" stroke="#811F1F" stroke-width="0.000240932"/>
<path d="M112.5 90.9029L108.75 105.903C108.59 106.545 108.262 107.132 107.801 107.606C107.34 108.081 106.762 108.424 106.125 108.603C105.763 108.721 105.381 108.771 105 108.753C104.507 108.756 104.018 108.661 103.561 108.475C103.104 108.288 102.688 108.013 102.338 107.665L99.6379 105.003C96.5547 107.766 93.1856 110.192 89.5879 112.24L87.6754 113.253C79.1338 117.713 69.6361 120.03 60.0002 120.003C44.0872 120.003 28.8259 113.682 17.5737 102.429C6.32144 91.1771 2.80559e-06 75.9158 2.80559e-06 60.0028C-0.00143846 55.3163 0.552425 50.6463 1.65001 46.0902C1.93929 45.1922 2.55642 44.4362 3.37835 43.973C4.20028 43.5099 5.16659 43.3735 6.08459 43.5912C7.00259 43.8088 7.80481 44.3645 8.33127 45.1474C8.85773 45.9303 9.06975 46.8829 8.92504 47.8152C7.98067 51.809 7.50247 55.8988 7.50003 60.0028C7.49733 69.1868 9.90388 78.2109 14.4794 86.174C19.0549 94.1372 25.6394 100.761 33.5752 105.383C41.5111 110.006 50.5208 112.466 59.7047 112.518C68.8886 112.569 77.9254 110.211 85.9129 105.678L86.2504 105.453C89.1359 103.802 91.8494 101.868 94.3504 99.6779L91.0879 96.4154C90.6058 95.9344 90.2639 95.3312 90.0987 94.6705C89.9336 94.0098 89.9514 93.3167 90.1504 92.6654C90.329 92.0286 90.6728 91.4504 91.147 90.9894C91.6212 90.5284 92.2088 90.201 92.8504 90.0404L107.85 86.2904C108.492 86.1055 109.171 86.0953 109.818 86.2607C110.465 86.4261 111.056 86.7612 111.53 87.2314C112.004 87.7016 112.344 88.2897 112.514 88.9352C112.685 89.5806 112.68 90.2599 112.5 90.9029Z" fill="white" stroke="#811F1F" stroke-width="0.000240932"/>
<path d="M120 60.0027C120.002 64.6892 119.448 69.3592 118.35 73.9153C118.152 74.7543 117.671 75.4995 116.988 76.0254C116.305 76.5513 115.462 76.8258 114.6 76.8028C114.314 76.8419 114.024 76.8419 113.738 76.8028C112.775 76.5713 111.942 75.9681 111.422 75.125C110.902 74.2819 110.737 73.2673 110.963 72.3028C111.954 68.2769 112.47 64.1487 112.5 60.0027C112.503 50.8187 110.096 41.7946 105.521 33.8315C100.945 25.8683 94.3609 19.2448 86.425 14.6222C78.4891 9.99955 69.4795 7.53958 60.2955 7.48788C51.1116 7.43618 42.0748 9.79456 34.0874 14.3276C31.0744 16.044 28.2469 18.0673 25.6499 20.3651L28.9124 23.5901C29.3944 24.0711 29.7364 24.6743 29.9015 25.335C30.0667 25.9957 30.0488 26.6888 29.8499 27.3401C29.6713 27.9769 29.3275 28.5551 28.8533 29.0161C28.3791 29.4771 27.7914 29.8045 27.1499 29.9651L12.1498 33.7151L11.2498 33.7526C10.7563 33.7555 10.267 33.6609 9.81015 33.4743C9.35326 33.2877 8.9377 33.0127 8.5873 32.6651C8.09877 32.1881 7.74976 31.5867 7.57794 30.9258C7.40612 30.2649 7.418 29.5697 7.61229 28.9151L11.3623 13.9151C11.5287 13.2804 11.8587 12.7005 12.3193 12.2333C12.78 11.7661 13.3551 11.4279 13.9873 11.2525C14.6386 11.0536 15.3318 11.0357 15.9924 11.2009C16.6531 11.3661 17.2563 11.708 17.7373 12.19L20.3248 15.0026C23.4325 12.2641 26.8127 9.85149 30.4124 7.80253C39.5401 2.62857 49.8651 -0.0613737 60.3571 0.00106264C70.849 0.0634989 81.1412 2.87614 90.2068 8.15835C99.2723 13.4406 106.794 21.0077 112.022 30.1047C117.25 39.2017 120.001 49.5106 120 60.0027Z" fill="white" stroke="#811F1F" stroke-width="0.000240932"/>
</svg>
