<svg width="91" height="92" viewBox="0 0 91 92" fill="none" xmlns="http://www.w3.org/2000/svg">
<circle cx="45.2605" cy="45.8853" r="45.2107" fill="#B695CC"/>
<path d="M68 47.0953H60.3333V64.6191H68" stroke="white" stroke-opacity="0.4" stroke-width="2.76"/>
<path d="M60.333 49.2857H52.6664C51.6497 49.2857 50.6747 49.7473 49.9558 50.5689C49.2369 51.3905 48.833 52.5048 48.833 53.6667H40.208C39.4455 53.6667 38.7143 54.0128 38.1751 54.629C37.6359 55.2452 37.333 56.081 37.333 56.9524C37.333 57.8238 37.6359 58.6595 38.1751 59.2757C38.7143 59.8919 39.4455 60.2381 40.208 60.2381H50.7497" stroke="white" stroke-opacity="0.4" stroke-width="2.76"/>
<path d="M37.333 56.7333L30.9793 52.3524C30.11 51.7605 29.1162 51.4501 28.1043 51.4543C27.3766 51.4535 26.6559 51.6165 25.9834 51.9341C25.3108 52.2517 24.6996 52.7176 24.1847 53.3052L21.9997 55.8572L39.1826 67.6419C40.4832 68.5306 41.9702 69 43.4855 69C44.4874 68.999 45.4808 68.7913 46.418 68.3867L60.333 62.4286" stroke="white" stroke-opacity="0.4" stroke-width="2.76"/>
<path d="M40.208 32.346V46.3651M40.208 32.346C40.208 29.0746 40.208 27.4389 40.7651 26.1894C41.2552 25.0903 42.037 24.1967 42.9987 23.6367C44.0921 23 45.5233 23 48.3858 23H49.6636C50.3792 23 50.737 23 51.0103 23.1592C51.2508 23.2992 51.4462 23.5226 51.5687 23.7973C51.708 24.1097 51.708 24.5187 51.708 25.3365V41.1079C51.708 41.9258 51.708 42.3347 51.5687 42.6471C51.4462 42.9219 51.2508 43.1452 51.0103 43.2853C50.737 43.4444 50.3792 43.4444 49.6636 43.4444H45.8984C45.2081 43.4444 44.863 43.4444 44.5293 43.5125C44.2331 43.5728 43.9441 43.6727 43.6684 43.8104C43.3577 43.9653 43.0705 44.1841 42.4963 44.6217L40.208 46.3651M40.208 32.346C40.208 29.0746 40.208 27.4389 39.6509 26.1894C39.1609 25.0903 38.379 24.1967 37.4174 23.6367C36.324 23 34.8927 23 32.0303 23H30.7525C30.0368 23 29.679 23 29.4057 23.1592C29.1652 23.2992 28.9699 23.5226 28.8473 23.7973C28.708 24.1097 28.708 24.5187 28.708 25.3365V41.1079C28.708 41.9258 28.708 42.3347 28.8473 42.6471C28.9699 42.9219 29.1652 43.1452 29.4057 43.2853C29.679 43.4444 30.0368 43.4444 30.7525 43.4444H34.5177C35.208 43.4444 35.5531 43.4444 35.8867 43.5125C36.183 43.5728 36.4719 43.6727 36.7477 43.8104C37.0583 43.9653 37.3455 44.1841 37.9198 44.6217L40.208 46.3651" stroke="#611991" stroke-width="2.76" stroke-linecap="round" stroke-linejoin="round"/>
</svg>
