<svg width="123" height="123" viewBox="0 0 123 123" fill="none" xmlns="http://www.w3.org/2000/svg">
<path d="M46.7538 55.4816C46.2434 55.4306 45.6309 55.4306 45.0695 55.4816C32.922 55.0733 23.2754 45.1205 23.2754 32.8709C23.2754 20.3661 33.3813 10.2091 45.9372 10.2091C58.442 10.2091 68.5989 20.3661 68.5989 32.8709C68.5479 45.1205 58.9013 55.0733 46.7538 55.4816Z" stroke="white" stroke-width="10.83" stroke-linecap="round" stroke-linejoin="round"/>
<path d="M83.7553 20.4149C93.6571 20.4149 101.619 28.4282 101.619 38.2789C101.619 47.9255 93.9633 55.7857 84.4188 56.1429C84.0105 56.0919 83.5512 56.0919 83.0918 56.1429" stroke="white" stroke-width="10.83" stroke-linecap="round" stroke-linejoin="round"/>
<path d="M21.2345 74.3132C8.88278 82.5817 8.88278 96.0563 21.2345 104.274C35.2705 113.665 58.2895 113.665 72.3255 104.274C84.6772 96.0052 84.6772 82.5307 72.3255 74.3132C58.3406 64.9729 35.3215 64.9729 21.2345 74.3132Z" stroke="white" stroke-width="10.83" stroke-linecap="round" stroke-linejoin="round"/>
<path d="M93.6074 102.081C97.2823 101.316 100.753 99.8353 103.611 97.6406C111.574 91.6689 111.574 81.8182 103.611 75.8465C100.804 73.7029 97.3844 72.2737 93.7605 71.4571" stroke="white" stroke-width="10.83" stroke-linecap="round" stroke-linejoin="round"/>
</svg>
