<svg width="24" height="25" viewBox="0 0 24 25" fill="none" xmlns="http://www.w3.org/2000/svg">
<path d="M11.7559 7.32617C11.7559 6.26531 11.3344 5.24789 10.5843 4.49774C9.83414 3.7476 8.81673 3.32617 7.75586 3.32617H1.75586V18.3262H8.75586C9.55151 18.3262 10.3146 18.6422 10.8772 19.2049C11.4398 19.7675 11.7559 20.5305 11.7559 21.3262M11.7559 7.32617V21.3262M11.7559 7.32617C11.7559 6.26531 12.1773 5.24789 12.9274 4.49774C13.6776 3.7476 14.695 3.32617 15.7559 3.32617H21.7559V18.3262H14.7559C13.9602 18.3262 13.1971 18.6422 12.6345 19.2049C12.0719 19.7675 11.7559 20.5305 11.7559 21.3262" stroke="#292D32" stroke-width="1.5" stroke-linecap="round" stroke-linejoin="round"/>
</svg>
