<svg width="90" height="91" viewBox="0 0 90 91" fill="none" xmlns="http://www.w3.org/2000/svg">

<path d="M45 42V63M45 42C45 37.0995 45 34.6493 45.8236 32.7776C46.5479 31.1312 47.7038 29.7926 49.1254 28.9537C50.7416 28 52.8574 28 57.0889 28H58.9778C60.0357 28 60.5646 28 60.9686 28.2384C61.3241 28.4482 61.613 28.7828 61.7941 29.1944C62 29.6623 62 30.2749 62 31.5V55.125C62 56.3502 62 56.9627 61.7941 57.4306C61.613 57.8423 61.3241 58.1768 60.9686 58.3866C60.5646 58.625 60.0357 58.625 58.9778 58.625H53.4118C52.3915 58.625 51.8813 58.625 51.388 58.7269C50.9501 58.8173 50.5229 58.9669 50.1153 59.1732C49.656 59.4053 49.2315 59.733 48.3826 60.3886L45 63M45 42C45 37.0995 45 34.6493 44.1764 32.7776C43.4521 31.1312 42.2962 29.7926 40.8747 28.9537C39.2583 28 37.1426 28 32.9111 28H31.0222C29.9643 28 29.4354 28 29.0313 28.2384C28.6758 28.4482 28.387 28.7828 28.2059 29.1944C28 29.6623 28 30.2749 28 31.5V55.125C28 56.3502 28 56.9627 28.2059 57.4306C28.387 57.8423 28.6758 58.1768 29.0313 58.3866C29.4354 58.625 29.9643 58.625 31.0222 58.625H36.5882C37.6086 58.625 38.1188 58.625 38.612 58.7269C39.05 58.8173 39.4771 58.9669 39.8847 59.1732C40.3439 59.4053 40.7685 59.733 41.6174 60.3886L45 63" stroke="#611991" stroke-width="2.76" stroke-linecap="round" stroke-linejoin="round"/>
</svg>
